<mxfile host="65bd71144e">
    <diagram id="FMIk02OX-MIhTsJ31VB4" name="第 1 页">
        <mxGraphModel dx="783" dy="567" grid="1" gridSize="10" guides="1" tooltips="1" connect="1" arrows="1" fold="1" page="1" pageScale="1" pageWidth="1600" pageHeight="900" math="0" shadow="0">
            <root>
                <mxCell id="0"/>
                <mxCell id="1" parent="0"/>
                <mxCell id="2" value="状态维护" style="shape=umlLifeline;perimeter=lifelinePerimeter;whiteSpace=wrap;html=1;container=1;collapsible=0;recursiveResize=0;outlineConnect=0;" vertex="1" parent="1">
                    <mxGeometry x="430" y="80" width="100" height="370" as="geometry"/>
                </mxCell>
                <mxCell id="9" value="" style="html=1;verticalAlign=bottom;labelBackgroundColor=none;endArrow=open;endFill=0;" edge="1" parent="2" target="6">
                    <mxGeometry width="160" relative="1" as="geometry">
                        <mxPoint x="50" y="80" as="sourcePoint"/>
                        <mxPoint x="210" y="80" as="targetPoint"/>
                    </mxGeometry>
                </mxCell>
                <mxCell id="16" value="返回网络状态 OK" style="html=1;verticalAlign=bottom;endArrow=open;dashed=1;endSize=8;exitX=-0.22;exitY=0.333;exitDx=0;exitDy=0;exitPerimeter=0;" edge="1" parent="2" source="8">
                    <mxGeometry relative="1" as="geometry">
                        <mxPoint x="310" y="190" as="sourcePoint"/>
                        <mxPoint x="50" y="190" as="targetPoint"/>
                    </mxGeometry>
                </mxCell>
                <mxCell id="18" value="" style="html=1;points=[];perimeter=orthogonalPerimeter;" vertex="1" parent="2">
                    <mxGeometry x="45" y="190" width="10" height="30" as="geometry"/>
                </mxCell>
                <mxCell id="6" value="链路管理" style="shape=umlLifeline;perimeter=lifelinePerimeter;whiteSpace=wrap;html=1;container=1;collapsible=0;recursiveResize=0;outlineConnect=0;" vertex="1" parent="1">
                    <mxGeometry x="700" y="80" width="100" height="390" as="geometry"/>
                </mxCell>
                <mxCell id="8" value="" style="html=1;points=[];perimeter=orthogonalPerimeter;" vertex="1" parent="6">
                    <mxGeometry x="45" y="160" width="10" height="90" as="geometry"/>
                </mxCell>
                <mxCell id="26" value="" style="html=1;points=[];perimeter=orthogonalPerimeter;" vertex="1" parent="6">
                    <mxGeometry x="45" y="320" width="10" height="40" as="geometry"/>
                </mxCell>
                <mxCell id="27" value="尝试重连" style="edgeStyle=orthogonalEdgeStyle;html=1;align=left;spacingLeft=2;endArrow=block;rounded=0;entryX=1;entryY=0;" edge="1" target="26" parent="6">
                    <mxGeometry relative="1" as="geometry">
                        <mxPoint x="50" y="300" as="sourcePoint"/>
                        <Array as="points">
                            <mxPoint x="75" y="300"/>
                        </Array>
                    </mxGeometry>
                </mxCell>
                <mxCell id="10" value="连接平台" style="html=1;verticalAlign=bottom;labelBackgroundColor=none;endArrow=open;endFill=0;entryX=0.3;entryY=-0.004;entryDx=0;entryDy=0;entryPerimeter=0;" edge="1" parent="1" source="2" target="8">
                    <mxGeometry width="160" relative="1" as="geometry">
                        <mxPoint x="480" y="190" as="sourcePoint"/>
                        <mxPoint x="740" y="190" as="targetPoint"/>
                    </mxGeometry>
                </mxCell>
                <mxCell id="11" value="配置参数" style="text;html=1;align=center;verticalAlign=middle;resizable=0;points=[];autosize=1;strokeColor=none;fillColor=none;" vertex="1" parent="1">
                    <mxGeometry x="580" y="140" width="60" height="20" as="geometry"/>
                </mxCell>
                <mxCell id="12" value="" style="html=1;verticalAlign=bottom;labelBackgroundColor=none;endArrow=open;endFill=0;" edge="1" parent="1">
                    <mxGeometry width="160" relative="1" as="geometry">
                        <mxPoint x="480" y="190" as="sourcePoint"/>
                        <mxPoint x="749.5" y="190" as="targetPoint"/>
                    </mxGeometry>
                </mxCell>
                <mxCell id="13" value="注册网络状态回调" style="text;html=1;align=center;verticalAlign=middle;resizable=0;points=[];autosize=1;strokeColor=none;fillColor=none;" vertex="1" parent="1">
                    <mxGeometry x="555" y="170" width="110" height="20" as="geometry"/>
                </mxCell>
                <mxCell id="14" value="发送协议数据" style="html=1;verticalAlign=bottom;labelBackgroundColor=none;endArrow=open;endFill=0;exitX=0.9;exitY=0.657;exitDx=0;exitDy=0;exitPerimeter=0;entryX=0.02;entryY=0.551;entryDx=0;entryDy=0;entryPerimeter=0;" edge="1" parent="1" source="18" target="8">
                    <mxGeometry width="160" relative="1" as="geometry">
                        <mxPoint x="490" y="290" as="sourcePoint"/>
                        <mxPoint x="740" y="290" as="targetPoint"/>
                    </mxGeometry>
                </mxCell>
                <mxCell id="17" value="返回网络状态 Disconnect" style="html=1;verticalAlign=bottom;endArrow=open;dashed=1;endSize=8;" edge="1" parent="1" source="6">
                    <mxGeometry relative="1" as="geometry">
                        <mxPoint x="740" y="330" as="sourcePoint"/>
                        <mxPoint x="480" y="330" as="targetPoint"/>
                    </mxGeometry>
                </mxCell>
                <mxCell id="21" value="尝试重连" style="html=1;verticalAlign=bottom;labelBackgroundColor=none;endArrow=open;endFill=0;entryX=0.3;entryY=-0.004;entryDx=0;entryDy=0;entryPerimeter=0;" edge="1" parent="1">
                    <mxGeometry width="160" relative="1" as="geometry">
                        <mxPoint x="479.9985714285713" y="359.9999999999999" as="sourcePoint"/>
                        <mxPoint x="748.07" y="359.9999999999999" as="targetPoint"/>
                    </mxGeometry>
                </mxCell>
            </root>
        </mxGraphModel>
    </diagram>
</mxfile>